<?xml version="1.0" encoding="UTF-8"?>
<mxfile host="app.diagrams.net" modified="2024-03-21T00:00:00.000Z" agent="Mozilla/5.0" version="21.7.5" etag="your-etag" type="device">
  <diagram id="api-interface" name="API接口">
    <mxGraphModel dx="1422" dy="762" grid="1" gridSize="10" guides="1" tooltips="1" connect="1" arrows="1" fold="1" page="1" pageScale="1" pageWidth="827" pageHeight="1169" math="0" shadow="0">
      <root>
        <mxCell id="0"/>
        <mxCell id="1" parent="0"/>
        
        <!-- Auth APIs -->
        <mxCell id="auth-group" value="Auth APIs" style="swimlane;fontStyle=1;align=center;verticalAlign=top;childLayout=stackLayout;horizontal=1;startSize=26;horizontalStack=0;resizeParent=1;resizeParentMax=0;resizeLast=0;collapsible=1;marginBottom=0;fillColor=#dae8fc;strokeColor=#6c8ebf;" vertex="1" parent="1">
          <mxGeometry x="40" y="40" width="200" height="120" as="geometry"/>
        </mxCell>
        <mxCell id="login" value="login(username, password): Promise&lt;ApiResponse&lt;LoginDot&gt;&gt;" style="text;strokeColor=none;fillColor=none;align=left;verticalAlign=top;spacingLeft=4;spacingRight=4;overflow=hidden;points=[[0,0.5],[1,0.5]];portConstraint=eastwest;rotatable=0;" vertex="1" parent="auth-group">
          <mxGeometry y="26" width="200" height="26" as="geometry"/>
        </mxCell>
        <mxCell id="register" value="register(username, password): Promise&lt;ApiResponse&lt;void&gt;&gt;" style="text;strokeColor=none;fillColor=none;align=left;verticalAlign=top;spacingLeft=4;spacingRight=4;overflow=hidden;points=[[0,0.5],[1,0.5]];portConstraint=eastwest;rotatable=0;" vertex="1" parent="auth-group">
          <mxGeometry y="52" width="200" height="26" as="geometry"/>
        </mxCell>

        <!-- Memo APIs -->
        <mxCell id="memo-group" value="Memo APIs" style="swimlane;fontStyle=1;align=center;verticalAlign=top;childLayout=stackLayout;horizontal=1;startSize=26;horizontalStack=0;resizeParent=1;resizeParentMax=0;resizeLast=0;collapsible=1;marginBottom=0;fillColor=#d5e8d4;strokeColor=#82b366;" vertex="1" parent="1">
          <mxGeometry x="280" y="40" width="240" height="320" as="geometry"/>
        </mxCell>
        <mxCell id="getMemos" value="getMemos(): Promise&lt;ApiResponse&lt;Memo[]&gt;&gt;" style="text;strokeColor=none;fillColor=none;align=left;verticalAlign=top;spacingLeft=4;spacingRight=4;overflow=hidden;points=[[0,0.5],[1,0.5]];portConstraint=eastwest;rotatable=0;" vertex="1" parent="memo-group">
          <mxGeometry y="26" width="240" height="26" as="geometry"/>
        </mxCell>
        <mxCell id="getMemo" value="getMemo(id): Promise&lt;ApiResponse&lt;Memo&gt;&gt;" style="text;strokeColor=none;fillColor=none;align=left;verticalAlign=top;spacingLeft=4;spacingRight=4;overflow=hidden;points=[[0,0.5],[1,0.5]];portConstraint=eastwest;rotatable=0;" vertex="1" parent="memo-group">
          <mxGeometry y="52" width="240" height="26" as="geometry"/>
        </mxCell>
        <mxCell id="createMemo" value="createMemo(data): Promise&lt;ApiResponse&lt;Memo&gt;&gt;" style="text;strokeColor=none;fillColor=none;align=left;verticalAlign=top;spacingLeft=4;spacingRight=4;overflow=hidden;points=[[0,0.5],[1,0.5]];portConstraint=eastwest;rotatable=0;" vertex="1" parent="memo-group">
          <mxGeometry y="78" width="240" height="26" as="geometry"/>
        </mxCell>
        <mxCell id="updateMemo" value="updateMemo(id, data): Promise&lt;ApiResponse&lt;Memo&gt;&gt;" style="text;strokeColor=none;fillColor=none;align=left;verticalAlign=top;spacingLeft=4;spacingRight=4;overflow=hidden;points=[[0,0.5],[1,0.5]];portConstraint=eastwest;rotatable=0;" vertex="1" parent="memo-group">
          <mxGeometry y="104" width="240" height="26" as="geometry"/>
        </mxCell>
        <mxCell id="deleteMemo" value="deleteMemo(id): Promise&lt;ApiResponse&lt;void&gt;&gt;" style="text;strokeColor=none;fillColor=none;align=left;verticalAlign=top;spacingLeft=4;spacingRight=4;overflow=hidden;points=[[0,0.5],[1,0.5]];portConstraint=eastwest;rotatable=0;" vertex="1" parent="memo-group">
          <mxGeometry y="130" width="240" height="26" as="geometry"/>
        </mxCell>
        <mxCell id="searchMemos" value="searchMemos(query): Promise&lt;ApiResponse&lt;Memo[]&gt;&gt;" style="text;strokeColor=none;fillColor=none;align=left;verticalAlign=top;spacingLeft=4;spacingRight=4;overflow=hidden;points=[[0,0.5],[1,0.5]];portConstraint=eastwest;rotatable=0;" vertex="1" parent="memo-group">
          <mxGeometry y="156" width="240" height="26" as="geometry"/>
        </mxCell>
        <mxCell id="getMemosByType" value="getMemosByType(type): Promise&lt;ApiResponse&lt;Memo[]&gt;&gt;" style="text;strokeColor=none;fillColor=none;align=left;verticalAlign=top;spacingLeft=4;spacingRight=4;overflow=hidden;points=[[0,0.5],[1,0.5]];portConstraint=eastwest;rotatable=0;" vertex="1" parent="memo-group">
          <mxGeometry y="182" width="240" height="26" as="geometry"/>
        </mxCell>
        <mxCell id="getMemosByTagIds" value="getMemosByTagIds(ids): Promise&lt;ApiResponse&lt;Memo[]&gt;&gt;" style="text;strokeColor=none;fillColor=none;align=left;verticalAlign=top;spacingLeft=4;spacingRight=4;overflow=hidden;points=[[0,0.5],[1,0.5]];portConstraint=eastwest;rotatable=0;" vertex="1" parent="memo-group">
          <mxGeometry y="208" width="240" height="26" as="geometry"/>
        </mxCell>
        <mxCell id="getTags" value="getTags(): Promise&lt;ApiResponse&lt;string[]&gt;&gt;" style="text;strokeColor=none;fillColor=none;align=left;verticalAlign=top;spacingLeft=4;spacingRight=4;overflow=hidden;points=[[0,0.5],[1,0.5]];portConstraint=eastwest;rotatable=0;" vertex="1" parent="memo-group">
          <mxGeometry y="234" width="240" height="26" as="geometry"/>
        </mxCell>
        <mxCell id="getTagsTree" value="getTagsTree(): Promise&lt;ApiResponse&lt;TagTreeNode[]&gt;&gt;" style="text;strokeColor=none;fillColor=none;align=left;verticalAlign=top;spacingLeft=4;spacingRight=4;overflow=hidden;points=[[0,0.5],[1,0.5]];portConstraint=eastwest;rotatable=0;" vertex="1" parent="memo-group">
          <mxGeometry y="260" width="240" height="26" as="geometry"/>
        </mxCell>

        <!-- Tag APIs -->
        <mxCell id="tag-group" value="Tag APIs" style="swimlane;fontStyle=1;align=center;verticalAlign=top;childLayout=stackLayout;horizontal=1;startSize=26;horizontalStack=0;resizeParent=1;resizeParentMax=0;resizeLast=0;collapsible=1;marginBottom=0;fillColor=#ffe6cc;strokeColor=#d79b00;" vertex="1" parent="1">
          <mxGeometry x="560" y="40" width="240" height="200" as="geometry"/>
        </mxCell>
        <mxCell id="updateTag" value="updateTag(id, data): Promise&lt;ApiResponse&lt;TagTreeNode&gt;&gt;" style="text;strokeColor=none;fillColor=none;align=left;verticalAlign=top;spacingLeft=4;spacingRight=4;overflow=hidden;points=[[0,0.5],[1,0.5]];portConstraint=eastwest;rotatable=0;" vertex="1" parent="tag-group">
          <mxGeometry y="26" width="240" height="26" as="geometry"/>
        </mxCell>
        <mxCell id="deleteTag" value="deleteTag(id): Promise&lt;ApiResponse&lt;void&gt;&gt;" style="text;strokeColor=none;fillColor=none;align=left;verticalAlign=top;spacingLeft=4;spacingRight=4;overflow=hidden;points=[[0,0.5],[1,0.5]];portConstraint=eastwest;rotatable=0;" vertex="1" parent="tag-group">
          <mxGeometry y="52" width="240" height="26" as="geometry"/>
        </mxCell>
        <mxCell id="fixTagFormat" value="fixTagFormat(): Promise&lt;ApiResponse&lt;void&gt;&gt;" style="text;strokeColor=none;fillColor=none;align=left;verticalAlign=top;spacingLeft=4;spacingRight=4;overflow=hidden;points=[[0,0.5],[1,0.5]];portConstraint=eastwest;rotatable=0;" vertex="1" parent="tag-group">
          <mxGeometry y="78" width="240" height="26" as="geometry"/>
        </mxCell>
        <mxCell id="deleteEmptyTags" value="deleteEmptyTags(): Promise&lt;ApiResponse&lt;void&gt;&gt;" style="text;strokeColor=none;fillColor=none;align=left;verticalAlign=top;spacingLeft=4;spacingRight=4;overflow=hidden;points=[[0,0.5],[1,0.5]];portConstraint=eastwest;rotatable=0;" vertex="1" parent="tag-group">
          <mxGeometry y="104" width="240" height="26" as="geometry"/>
        </mxCell>
        <mxCell id="getTagByTagPath" value="getTagByTagPath(tagPathDto): Promise&lt;ApiResponse&lt;TagItem&gt;&gt;" style="text;strokeColor=none;fillColor=none;align=left;verticalAlign=top;spacingLeft=4;spacingRight=4;overflow=hidden;points=[[0,0.5],[1,0.5]];portConstraint=eastwest;rotatable=0;" vertex="1" parent="tag-group">
          <mxGeometry y="130" width="240" height="26" as="geometry"/>
        </mxCell>

      </root>
    </mxGraphModel>
  </diagram>
</mxfile> 